<?xml version="1.0" standalone="no"?>
<!DOCTYPE svg PUBLIC "-//W3C//DTD SVG 20010904//EN"
 "http://www.w3.org/TR/2001/REC-SVG-20010904/DTD/svg10.dtd">
<svg version="1.0" xmlns="http://www.w3.org/2000/svg"
 width="1024.000000pt" height="1024.000000pt" viewBox="0 0 1024.000000 1024.000000"
 preserveAspectRatio="xMidYMid meet">

<g transform="translate(0.000000,1024.000000) scale(0.100000,-0.100000)"
fill="#E63946" stroke="none">
<path d="M2625 8529 c-102 -15 -275 -71 -373 -120 -122 -63 -208 -125 -318
-231 -185 -178 -307 -398 -361 -648 -17 -81 -18 -201 -18 -2475 l0 -2390 22
-92 c40 -167 117 -332 228 -488 157 -219 363 -374 617 -463 187 -66 4 -62
2684 -62 2434 0 2434 0 2531 21 315 68 566 221 749 455 121 155 209 332 256
520 l23 89 0 2425 0 2425 -28 100 c-34 121 -117 297 -189 402 -149 215 -391
396 -642 478 -213 70 -22 65 -2700 64 -1331 -1 -2448 -5 -2481 -10z m4965
-537 c208 -65 374 -208 470 -405 82 -170 75 62 75 -2517 0 -1875 -2 -2307 -13
-2360 -36 -175 -142 -349 -284 -467 -62 -51 -185 -113 -278 -139 -62 -18 -169
-19 -2432 -22 -2070 -2 -2377 0 -2440 13 -90 19 -235 89 -313 152 -124 101
-224 259 -265 417 -20 78 -20 104 -20 2388 0 2562 -5 2372 66 2526 106 231
309 391 546 431 30 5 1091 8 2433 7 l2380 -1 75 -23z"/>
<path d="M4880 7415 c-185 -34 -384 -112 -521 -206 -141 -95 -307 -269 -407
-425 l-32 -51 -128 -6 c-153 -8 -263 -27 -380 -69 -235 -83 -404 -203 -559
-398 -379 -476 -344 -1110 85 -1561 134 -141 290 -237 505 -309 l67 -23 0
-702 c0 -676 1 -705 20 -768 26 -83 90 -154 175 -194 l60 -28 1304 -3 c846 -1
1323 1 1359 8 113 21 204 89 250 188 l27 57 3 720 3 720 66 23 c214 75 366
165 498 296 561 556 438 1466 -252 1873 -200 117 -400 172 -633 173 l-85 0
-65 93 c-87 125 -272 308 -384 382 -168 109 -375 190 -551 214 -104 15 -333
12 -425 -4z m436 -545 c105 -26 244 -96 325 -163 154 -128 269 -325 303 -517
26 -153 53 -164 204 -91 140 67 219 85 342 78 217 -12 387 -109 507 -290 136
-205 144 -470 21 -685 -50 -89 -179 -212 -265 -255 -203 -100 -433 -88 -620
34 -75 49 -127 56 -176 24 -54 -35 -73 -115 -42 -175 19 -36 133 -135 208
-181 l56 -34 1 -702 0 -703 -1068 0 -1069 0 -7 217 c-3 120 -3 436 0 704 l7
486 46 29 c25 16 78 55 118 86 107 85 136 155 93 225 -47 78 -114 86 -211 25
-104 -66 -189 -94 -300 -100 -311 -16 -574 177 -655 480 -22 82 -22 231 0 323
51 211 212 388 421 462 71 25 94 28 205 27 149 0 210 -15 321 -80 42 -24 86
-44 98 -44 34 0 91 61 91 97 0 50 39 184 75 262 69 145 194 287 323 365 188
114 432 150 648 96z"/>
<path d="M4442 4623 c-69 -33 -67 -20 -67 -598 0 -579 -3 -552 68 -595 59 -36
141 -17 177 42 19 32 20 49 20 546 0 498 -1 514 -21 553 -32 64 -108 86 -177
52z"/>
<path d="M5039 4625 c-14 -8 -35 -27 -45 -42 -18 -26 -19 -56 -22 -508 -2
-264 0 -504 3 -534 13 -106 97 -156 188 -112 79 39 77 19 77 603 0 491 -1 514
-20 545 -35 58 -121 81 -181 48z"/>
<path d="M5643 4623 c-64 -32 -63 -26 -63 -600 0 -496 1 -519 20 -550 48 -80
164 -82 219 -5 21 30 21 34 21 554 0 501 -1 524 -20 555 -36 60 -111 79 -177
46z"/>
</g>
</svg>
